<svg width="21" height="18" viewBox="0 0 21 18" fill="none" xmlns="http://www.w3.org/2000/svg">
<path fill-rule="evenodd" clip-rule="evenodd" d="M19 2.60625H2V15.1437H19V2.60625ZM0 0.606247V17.1437H21V0.606247H0Z" fill="#828282"/>
<path fill-rule="evenodd" clip-rule="evenodd" d="M6.57031 11.2209C5.49985 9.81191 4.95228 7.72338 5.31337 5.01981L6.35054 5.21311C6.02978 7.61468 6.52776 9.3079 7.35178 10.3925C8.18491 11.4892 9.40388 12.034 10.6292 12.0128C11.8553 11.9915 13.0442 11.4044 13.821 10.3037C14.5879 9.21696 15.0053 7.55462 14.575 5.25004L15.6003 4.98289C16.0881 7.595 15.6371 9.66729 14.6275 11.0978C13.628 12.5143 12.1325 13.2271 10.6447 13.2529C9.15612 13.2788 7.63167 12.618 6.57031 11.2209Z" fill="#828282"/>
<path fill-rule="evenodd" clip-rule="evenodd" d="M15.9933 4.36379L16.0917 4.89111C16.5983 7.60395 16.1403 9.82128 15.036 11.3861C13.9425 12.9356 12.2971 13.7243 10.6532 13.7529C9.00806 13.7814 7.33144 13.0495 6.17208 11.5234C5.00349 9.98523 4.44352 7.75492 4.81767 4.95362L4.88736 4.43183L6.90891 4.80858L6.84604 5.2793C6.53838 7.5828 7.02374 9.13436 7.74981 10.0901C8.48513 11.058 9.55207 11.5314 10.6205 11.5128C11.6901 11.4943 12.7292 10.9835 13.4124 10.0154C14.0847 9.06271 14.4948 7.54529 14.0834 5.34181L13.9978 4.88369L15.9933 4.36379ZM15.1429 5.61874C15.4586 7.79589 15.035 9.45038 14.2294 10.5919C13.359 11.8254 12.0202 12.4887 10.6378 12.5127C9.25548 12.5367 7.88447 11.9204 6.95354 10.695C6.09065 9.55921 5.58812 7.87919 5.80095 5.61931L5.74986 5.60979C5.53583 7.9542 6.0623 9.72586 6.96835 10.9185C7.9317 12.1865 9.30398 12.7761 10.6359 12.753C11.9677 12.7299 13.3132 12.093 14.2189 10.8095C15.0682 9.6061 15.5117 7.85875 15.1955 5.60501L15.1429 5.61874Z" fill="#828282"/>
</svg>
