<svg width="18" height="18" viewBox="0 0 18 18" fill="none" xmlns="http://www.w3.org/2000/svg">
<path fill-rule="evenodd" clip-rule="evenodd" d="M11.5 2C9.01469 2.00003 7 4.01472 7 6.5C7 6.99406 7.07959 7.46788 7.22566 7.91081L7.41853 8.49565L2 13.9142V16H5V14H7V12H9.05097L10.103 10.8164L10.6596 10.9214C10.9319 10.9728 11.2126 11 11.5 11C13.9853 11 16 8.9853 16 6.50003C16 4.00575 13.9942 1.99997 11.5 2ZM5 6.5C5 2.91015 7.91012 3.69552e-05 11.5 3.53035e-10C15.0988 -3.69545e-05 18 2.90119 18 6.50003C18 10.0899 15.0898 13 11.5 13C11.2859 13 11.0742 12.9895 10.8654 12.9691L10.4712 13.4126C10.307 13.5974 10.1055 13.7452 9.88011 13.8464C9.65467 13.9477 9.41034 14 9.16322 14C9.16321 14 9.16323 14 9.16322 14H9V14.25C9 15.2165 8.2165 16 7.25 16H7V16.25C7 17.2165 6.2165 18 5.25 18H1.75C0.783496 18 0 17.2165 0 16.25V13.8107C0 13.3465 0.184398 12.9014 0.512471 12.5733L5.15784 7.92792C5.05455 7.46794 5 6.98998 5 6.5Z" fill="#80B435"/>
<path d="M14 5.5C14 6.32843 13.3284 7 12.5 7C11.6716 7 11 6.32843 11 5.5C11 4.67157 11.6716 4 12.5 4C13.3284 4 14 4.67157 14 5.5Z" fill="#80B435"/>
</svg>
