<svg width="16" height="19" viewBox="0 0 16 19" fill="none" xmlns="http://www.w3.org/2000/svg">
<path fill-rule="evenodd" clip-rule="evenodd" d="M7.99994 2C6.67036 2 5.59253 3.07783 5.59253 4.40741C5.59253 5.73698 6.67036 6.81482 7.99994 6.81482C9.32951 6.81482 10.4073 5.73698 10.4073 4.40741C10.4073 3.07783 9.32951 2 7.99994 2ZM3.59253 4.40741C3.59253 1.97326 5.56579 0 7.99994 0C10.4341 0 12.4073 1.97326 12.4073 4.40741C12.4073 6.84155 10.4341 8.81482 7.99994 8.81482C5.56579 8.81482 3.59253 6.84155 3.59253 4.40741Z" fill="#D3D3D3"/>
<path fill-rule="evenodd" clip-rule="evenodd" d="M2.47409 11.6593C3.93965 10.1937 5.92738 9.37038 8 9.37038C10.0726 9.37038 12.0603 10.1937 13.5259 11.6593C14.9915 13.1248 15.8148 15.1126 15.8148 17.1852V18.1852L0.185181 18.1852L0.185181 17.1852C0.185181 15.1126 1.00853 13.1248 2.47409 11.6593ZM8 11.3704C6.45781 11.3704 4.97879 11.983 3.8883 13.0735C3.03646 13.9253 2.47621 15.0143 2.27179 16.1852L13.7282 16.1852C13.5238 15.0143 12.9635 13.9253 12.1117 13.0735C11.0212 11.983 9.54218 11.3704 8 11.3704Z" fill="#D3D3D3"/>
</svg>
