<svg width="19" height="14" viewBox="0 0 19 14" fill="none" xmlns="http://www.w3.org/2000/svg">
<path fill-rule="evenodd" clip-rule="evenodd" d="M10.8577 4.37505H5.73044C5.22903 4.37505 4.82564 4.76509 4.82564 5.2499V8.74932C4.82564 9.23414 5.22903 9.62418 5.73044 9.62418H10.8577V13.1236C10.8577 13.9073 11.8379 14.2901 12.4034 13.7433L18.737 7.6193C19.0877 7.27665 19.0877 6.72258 18.737 6.37992L12.4034 0.255941C11.8341 -0.290843 10.8577 0.0955512 10.8577 0.87563V4.37505ZM12.8577 3.4772V6.37505H6.82564V7.62418H12.8577V10.522L16.5007 6.99961L12.8577 3.4772ZM7.23845 12.1029V13.561C7.23845 13.8016 7.03487 13.9985 6.78605 13.9985H3.61923C1.62111 13.9985 0 12.431 0 10.499V3.50019C0 1.56822 1.62111 0.000775287 3.61923 0.000775287H6.78605C7.03487 0.000775287 7.23845 0.197618 7.23845 0.438203V1.89629C7.23845 2.13688 7.03487 2.33372 6.78605 2.33372H3.61923C2.95193 2.33372 2.41282 2.85499 2.41282 3.50019V10.499C2.41282 11.1442 2.95193 11.6655 3.61923 11.6655H6.78605C7.03487 11.6655 7.23845 11.8623 7.23845 12.1029Z" fill="#80B435"/>
</svg>
