<svg width="21" height="18" viewBox="0 0 21 18" fill="none" xmlns="http://www.w3.org/2000/svg">
<path fill-rule="evenodd" clip-rule="evenodd" d="M9.37801 1.48099C7.30536 -0.335979 4.17551 -0.552832 2.03894 1.23078C-0.536791 3.38431 -0.67214 7.24942 1.63289 9.58375L10.5 18L19.3636 9.58375C21.6727 7.24942 21.5374 3.38431 18.9617 1.23078C16.8235 -0.554196 13.6942 -0.335647 11.6184 1.48516C11.5122 1.57833 11.4087 1.67569 11.3083 1.77719L10.5003 2.5928L9.69231 1.77719C9.59059 1.67418 9.48572 1.57542 9.37801 1.48099ZM17.6794 2.76564C16.3186 1.63019 14.1466 1.75201 12.73 3.18383L10.5003 5.4346L8.26915 3.18241C6.85788 1.75312 4.6827 1.62953 3.32112 2.7657C1.66126 4.15414 1.56452 6.64444 3.03577 8.15784L10.4997 15.2423L17.9613 8.15728C19.4359 6.64401 19.3394 4.1541 17.6794 2.76564Z" fill="#80B435"/>
</svg>
