<svg width="18" height="16" viewBox="0 0 18 16" fill="none" xmlns="http://www.w3.org/2000/svg">
<path d="M16.3125 0H1.6875C0.755508 0 0 0.7675 0 1.71429V14.2857C0 15.2325 0.755508 16 1.6875 16H16.3125C17.2445 16 18 15.2325 18 14.2857V1.71429C18 0.7675 17.2445 0 16.3125 0ZM16.1016 14.2857H1.89844C1.84249 14.2857 1.78884 14.2631 1.74928 14.223C1.70972 14.1828 1.6875 14.1283 1.6875 14.0714V1.92857C1.6875 1.87174 1.70972 1.81724 1.74928 1.77705C1.78884 1.73686 1.84249 1.71429 1.89844 1.71429H16.1016C16.1575 1.71429 16.2112 1.73686 16.2507 1.77705C16.2903 1.81724 16.3125 1.87174 16.3125 1.92857V14.0714C16.3125 14.1283 16.2903 14.1828 16.2507 14.223C16.2112 14.2631 16.1575 14.2857 16.1016 14.2857ZM14.625 11V11.8571C14.625 12.0938 14.4361 12.2857 14.2031 12.2857H7.17188C6.93889 12.2857 6.75 12.0938 6.75 11.8571V11C6.75 10.7633 6.93889 10.5714 7.17188 10.5714H14.2031C14.4361 10.5714 14.625 10.7633 14.625 11ZM14.625 7.57143V8.42857C14.625 8.66525 14.4361 8.85714 14.2031 8.85714H7.17188C6.93889 8.85714 6.75 8.66525 6.75 8.42857V7.57143C6.75 7.33475 6.93889 7.14286 7.17188 7.14286H14.2031C14.4361 7.14286 14.625 7.33475 14.625 7.57143ZM14.625 4.14286V5C14.625 5.23668 14.4361 5.42857 14.2031 5.42857H7.17188C6.93889 5.42857 6.75 5.23668 6.75 5V4.14286C6.75 3.90618 6.93889 3.71429 7.17188 3.71429H14.2031C14.4361 3.71429 14.625 3.90618 14.625 4.14286ZM5.76562 4.57143C5.76562 5.2815 5.19898 5.85714 4.5 5.85714C3.80102 5.85714 3.23438 5.2815 3.23438 4.57143C3.23438 3.86136 3.80102 3.28571 4.5 3.28571C5.19898 3.28571 5.76562 3.86136 5.76562 4.57143ZM5.76562 8C5.76562 8.71007 5.19898 9.28572 4.5 9.28572C3.80102 9.28572 3.23438 8.71007 3.23438 8C3.23438 7.28993 3.80102 6.71429 4.5 6.71429C5.19898 6.71429 5.76562 7.28993 5.76562 8ZM5.76562 11.4286C5.76562 12.1386 5.19898 12.7143 4.5 12.7143C3.80102 12.7143 3.23438 12.1386 3.23438 11.4286C3.23438 10.7185 3.80102 10.1429 4.5 10.1429C5.19898 10.1429 5.76562 10.7185 5.76562 11.4286Z" fill="#80B435"/>
</svg>
