<svg width="16" height="19" viewBox="0 0 16 19" fill="none" xmlns="http://www.w3.org/2000/svg">
<path fill-rule="evenodd" clip-rule="evenodd" d="M7.81463 2C6.48506 2 5.40723 3.07783 5.40723 4.40741C5.40723 5.73698 6.48506 6.81482 7.81463 6.81482C9.14421 6.81482 10.222 5.73698 10.222 4.40741C10.222 3.07783 9.14421 2 7.81463 2ZM3.40723 4.40741C3.40723 1.97326 5.38049 0 7.81463 0C10.2488 0 12.222 1.97326 12.222 4.40741C12.222 6.84155 10.2488 8.81482 7.81463 8.81482C5.38049 8.81482 3.40723 6.84155 3.40723 4.40741ZM2.28891 11.6595C3.75447 10.1939 5.7422 9.37061 7.81482 9.37061C9.88743 9.37061 11.8752 10.194 13.3407 11.6595C14.8063 13.1251 15.6296 15.1128 15.6296 17.1854V18.1854L0 18.1854L1.19209e-07 17.1854C4.17233e-07 15.1128 0.823345 13.1251 2.28891 11.6595ZM7.81482 11.3706C6.27263 11.3706 4.79361 11.9832 3.70312 13.0737C2.85128 13.9256 2.29102 15.0145 2.08661 16.1854L13.543 16.1854C13.3386 15.0145 12.7784 13.9256 11.9265 13.0737C10.836 11.9832 9.357 11.3706 7.81482 11.3706Z" fill="#80B435"/>
</svg>
