<svg width="46" height="50" viewBox="0 0 46 50" fill="none" xmlns="http://www.w3.org/2000/svg">
<path d="M24.5165 25.0884L24.615 24.9997L3.27638 1.30079C2.71467 0.676936 1.75357 0.626568 1.12972 1.18828C0.505874 1.75 0.455505 2.71109 1.01722 3.33494L20.601 25.0849L1.01568 46.8366C0.45396 47.4605 0.504329 48.4216 1.12818 48.9833C1.75203 49.545 2.71312 49.4946 3.27484 48.8708L24.6115 25.174L24.5165 25.0884Z" fill="#80B435"/>
<path d="M45.5165 25.0884L45.6115 25.174L24.2748 48.8708C23.7131 49.4946 22.752 49.545 22.1282 48.9833C21.5043 48.4216 21.454 47.4605 22.0157 46.8366L41.601 25.0849L22.0172 3.33494C21.4555 2.71109 21.5059 1.75 22.1297 1.18828C22.7536 0.626568 23.7147 0.676936 24.2764 1.30079L45.615 24.9997L45.5165 25.0884Z" fill="#80B435"/>
</svg>
