<svg width="60" height="53" viewBox="0 0 60 53" fill="none" xmlns="http://www.w3.org/2000/svg">
<path fill-rule="evenodd" clip-rule="evenodd" d="M45 29C47.7614 29 50 26.7614 50 24C50 21.2386 47.7614 19 45 19C42.2386 19 40 21.2386 40 24C40 26.7614 42.2386 29 45 29ZM45 27C46.6569 27 48 25.6569 48 24C48 22.3431 46.6569 21 45 21C43.3431 21 42 22.3431 42 24C42 25.6569 43.3431 27 45 27Z" fill="#80B435"/>
<path d="M11 19C10.4477 19 10 19.4477 10 20V44C10 44.5523 10.4477 45 11 45C11.5523 45 12 44.5523 12 44V20C12 19.4477 11.5523 19 11 19Z" fill="#80B435"/>
<path fill-rule="evenodd" clip-rule="evenodd" d="M2.37285 2.27576C3.89236 0.828614 6.02389 -4.75625e-05 8.50002 2.04751e-09H49.5C52.1042 2.04751e-09 53.7779 1.18333 54.7628 2.62274C55.7095 4.00631 56 5.58774 56 6.5C56 7.49354 55.6479 8.25259 54.952 8.67013C54.3955 9.00405 53.7757 9.00122 53.5334 9.00011L53.4997 9C53.0621 8.99984 20.8088 8.99996 12.1184 8.99999L10 9C9.51855 9 9 9.48086 9 10C9 10.1836 9.1066 10.4336 9.37086 10.6727C9.64924 10.9246 9.92065 11 10 11H52.4278L52.4353 10.999C52.4907 10.9916 52.5676 10.9823 52.663 10.9733C52.8534 10.9551 53.1198 10.9375 53.4375 10.9375C54.0659 10.9375 54.9312 11.0063 55.8162 11.3014C56.708 11.5986 57.6492 12.1364 58.3625 13.0876C59.0792 14.0432 59.5 15.3282 59.5 17V45.9989C59.5 45.9991 59.5 46 58.5 46C59.495 46.0995 59.495 46.1 59.4949 46.1006L59.4948 46.1018L59.4945 46.1047L59.4938 46.1117L59.4916 46.1313L59.4872 46.166L59.4838 46.1915C59.4771 46.2408 59.467 46.308 59.4522 46.3906C59.4228 46.5555 59.3747 46.7835 59.2981 47.0539C59.1458 47.5912 58.8757 48.3147 58.401 49.045C57.4225 50.5504 55.6211 52.0001 52.5 52C51.1862 52 48.1225 52.0027 44.1807 52.0063L44.1729 52.0063H44.1627C31.6376 52.0176 10.2726 52.0369 7.98382 51.9999C6.24624 51.9717 4.2823 51.2594 2.74381 50.0074C1.18944 48.7424 0 46.8641 0 44.5V8C0 5.74107 0.851672 3.72449 2.37285 2.27576ZM57.5 45.9367V17C57.5 15.6719 57.1708 14.832 56.7625 14.2876C56.3509 13.7387 55.792 13.4015 55.1838 13.1987C54.5689 12.9938 53.9341 12.9375 53.4375 12.9375C53.1927 12.9375 52.9904 12.9511 52.8526 12.9643C52.784 12.9708 52.732 12.9771 52.6995 12.9815L52.6841 12.9836L52.6661 12.9862L52.6644 12.9864L52.6628 12.9867L52.6617 12.9868L52.5828 13H52.5V12C52.5 13 52.5003 13 52.5 13H10C9.27905 13 8.55046 12.6276 8.02891 12.1557C7.49324 11.671 7 10.921 7 10C7 8.31 8.48146 7 10 7L12.1175 6.99999C20.8065 6.99996 53.0624 6.99984 53.5004 7C53.6303 7.00005 53.7197 6.99873 53.804 6.9867C53.8824 6.97551 53.9149 6.95981 53.9223 6.95552C53.9245 6.95267 53.9289 6.94595 53.9349 6.93351C53.9549 6.89196 54 6.76793 54 6.5C54 5.91209 53.7905 4.74351 53.1122 3.75213C52.4721 2.81658 51.3958 2 49.5 2H8.49998C6.47611 1.99996 4.85763 2.67121 3.75215 3.72404C2.64833 4.77529 2 6.25875 2 8V44.5C2 46.1357 2.81056 47.4831 4.00619 48.4561C5.2177 49.442 6.75376 49.9797 8.01618 50.0001C10.286 50.0369 31.5783 50.0176 44.1095 50.0063C48.0815 50.0027 51.1733 50 52.5 50C54.879 50.0001 56.0775 48.9497 56.7241 47.9551C57.0619 47.4354 57.2605 46.9088 57.3738 46.5087C57.43 46.3102 57.464 46.1476 57.4834 46.0391C57.4911 45.9956 57.4965 45.9611 57.5 45.9367Z" fill="#80B435"/>
<path d="M58.5 46H59.5V46.0499L59.495 46.0995L58.5 46Z" fill="#80B435"/>
</svg>
