<svg width="18" height="18" viewBox="0 0 18 18" fill="none" xmlns="http://www.w3.org/2000/svg">
<path fill-rule="evenodd" clip-rule="evenodd" d="M7.4 2C4.41766 2 2 4.41766 2 7.4C2 10.3823 4.41766 12.8 7.4 12.8C10.3823 12.8 12.8 10.3823 12.8 7.4C12.8 4.41766 10.3823 2 7.4 2ZM0 7.4C0 3.31309 3.31309 0 7.4 0C11.4869 0 14.8 3.31309 14.8 7.4C14.8 11.4869 11.4869 14.8 7.4 14.8C3.31309 14.8 0 11.4869 0 7.4Z" fill="#D3D3D3"/>
<path fill-rule="evenodd" clip-rule="evenodd" d="M16.293 17.7071L11.493 12.9071L12.9073 11.4929L17.7073 16.2929L16.293 17.7071Z" fill="#D3D3D3"/>
</svg>
