<svg width="13" height="16" viewBox="0 0 13 16" fill="none" xmlns="http://www.w3.org/2000/svg">
<path d="M0 14.5C0 15.3281 0.623884 16 1.39286 16H11.6071C12.3761 16 13 15.3281 13 14.5V6H0V14.5ZM9.28571 8.375C9.28571 8.16875 9.44241 8 9.63393 8H10.7946C10.9862 8 11.1429 8.16875 11.1429 8.375V9.625C11.1429 9.83125 10.9862 10 10.7946 10H9.63393C9.44241 10 9.28571 9.83125 9.28571 9.625V8.375ZM9.28571 12.375C9.28571 12.1687 9.44241 12 9.63393 12H10.7946C10.9862 12 11.1429 12.1687 11.1429 12.375V13.625C11.1429 13.8313 10.9862 14 10.7946 14H9.63393C9.44241 14 9.28571 13.8313 9.28571 13.625V12.375ZM5.57143 8.375C5.57143 8.16875 5.72812 8 5.91964 8H7.08036C7.27187 8 7.42857 8.16875 7.42857 8.375V9.625C7.42857 9.83125 7.27187 10 7.08036 10H5.91964C5.72812 10 5.57143 9.83125 5.57143 9.625V8.375ZM5.57143 12.375C5.57143 12.1687 5.72812 12 5.91964 12H7.08036C7.27187 12 7.42857 12.1687 7.42857 12.375V13.625C7.42857 13.8313 7.27187 14 7.08036 14H5.91964C5.72812 14 5.57143 13.8313 5.57143 13.625V12.375ZM1.85714 8.375C1.85714 8.16875 2.01384 8 2.20536 8H3.36607C3.55759 8 3.71429 8.16875 3.71429 8.375V9.625C3.71429 9.83125 3.55759 10 3.36607 10H2.20536C2.01384 10 1.85714 9.83125 1.85714 9.625V8.375ZM1.85714 12.375C1.85714 12.1687 2.01384 12 2.20536 12H3.36607C3.55759 12 3.71429 12.1687 3.71429 12.375V13.625C3.71429 13.8313 3.55759 14 3.36607 14H2.20536C2.01384 14 1.85714 13.8313 1.85714 13.625V12.375ZM11.6071 2H10.2143V0.5C10.2143 0.225 10.0054 0 9.75 0H8.82143C8.56607 0 8.35714 0.225 8.35714 0.5V2H4.64286V0.5C4.64286 0.225 4.43393 0 4.17857 0H3.25C2.99464 0 2.78571 0.225 2.78571 0.5V2H1.39286C0.623884 2 0 2.67188 0 3.5V5H13V3.5C13 2.67188 12.3761 2 11.6071 2Z" fill="#BDBDBD"/>
</svg>
