<svg width="57" height="44" viewBox="0 0 57 44" fill="none" xmlns="http://www.w3.org/2000/svg">
<path d="M47.787 37.0562C47.787 37.7241 47.3318 38.2054 46.6786 38.2054C46.0057 38.2054 45.5703 37.6946 45.5703 37.0562C45.5703 36.4179 46.0057 35.9071 46.6786 35.9071C47.3318 35.9071 47.787 36.4179 47.787 37.0562ZM17.0307 35.9071C16.3281 35.9071 15.9224 36.4179 15.9224 37.0562C15.9224 37.6946 16.3281 38.2054 17.0307 38.2054C17.674 38.2054 18.1094 37.7241 18.1094 37.0562C18.0995 36.4179 17.674 35.9071 17.0307 35.9071ZM28.6583 35.8777C28.124 35.8777 27.7974 36.2214 27.7182 36.7321H29.6083C29.5193 36.1723 29.1729 35.8777 28.6583 35.8777ZM39.326 35.9071C38.6531 35.9071 38.2474 36.4179 38.2474 37.0562C38.2474 37.6946 38.6531 38.2054 39.326 38.2054C39.999 38.2054 40.4344 37.7241 40.4344 37.0562C40.4344 36.4179 39.999 35.9071 39.326 35.9071ZM49.8057 38.4705C49.8057 38.5 49.8354 38.5196 49.8354 38.5786C49.8354 38.608 49.8057 38.6277 49.8057 38.6866C49.776 38.7161 49.776 38.7357 49.7562 38.7652C49.7266 38.7946 49.7068 38.8143 49.6474 38.8143C49.6177 38.8438 49.5979 38.8438 49.5385 38.8438C49.5089 38.8438 49.4891 38.8438 49.4297 38.8143C49.4 38.8143 49.3802 38.7848 49.3505 38.7652C49.3208 38.7357 49.301 38.7161 49.301 38.6866C49.2714 38.6375 49.2714 38.608 49.2714 38.5786C49.2714 38.5295 49.2714 38.5 49.301 38.4705C49.301 38.4214 49.3307 38.392 49.3505 38.3625C49.3802 38.333 49.4 38.333 49.4297 38.3134C49.4792 38.2839 49.5089 38.2839 49.5385 38.2839C49.588 38.2839 49.6177 38.2839 49.6474 38.3134C49.6969 38.3429 49.7266 38.3429 49.7562 38.3625C49.7859 38.3821 49.776 38.4214 49.8057 38.4705ZM49.588 38.608C49.6375 38.608 49.6375 38.5786 49.6672 38.5786C49.6969 38.5491 49.6969 38.5295 49.6969 38.5C49.6969 38.4705 49.6969 38.4509 49.6672 38.4214C49.6375 38.4214 49.6177 38.392 49.5583 38.392H49.4V38.7357H49.4792V38.5982H49.5089L49.6177 38.7357H49.6969L49.588 38.608ZM57 4.71429V39.2857C57 41.8884 54.8724 44 52.25 44H4.75C2.1276 44 0 41.8884 0 39.2857V4.71429C0 2.11161 2.1276 0 4.75 0H52.25C54.8724 0 57 2.11161 57 4.71429ZM6.33333 18.425C6.33333 25.9384 12.4786 32.0277 20.0391 32.0277C22.7307 32.0277 25.3729 31.2223 27.6094 29.7589C20.3953 23.9348 20.4448 12.9446 27.6094 7.12054C25.3729 5.64732 22.7307 4.85179 20.0391 4.85179C12.4786 4.84196 6.33333 10.9411 6.33333 18.425ZM28.5 29.1107C35.4766 23.7089 35.4469 13.1804 28.5 7.74911C21.5531 13.1804 21.5234 23.7187 28.5 29.1107ZM14.4182 36.6045C14.4182 35.75 13.8542 35.1902 12.9635 35.1607C12.5083 35.1607 12.0234 35.2982 11.6969 35.7991C11.4594 35.3964 11.0536 35.1607 10.4896 35.1607C10.1135 35.1607 9.7375 35.2982 9.44063 35.6911V35.2589H8.62917V38.8634H9.44063C9.44063 37.0071 9.19323 35.8973 10.3313 35.8973C11.3406 35.8973 11.1427 36.8991 11.1427 38.8634H11.9245C11.9245 37.0661 11.6771 35.8973 12.8151 35.8973C13.8245 35.8973 13.6266 36.8795 13.6266 38.8634H14.438V36.6045H14.4182ZM18.8615 35.2589H18.0797V35.6911C17.8125 35.367 17.4365 35.1607 16.9219 35.1607C15.9026 35.1607 15.1208 35.9661 15.1208 37.0562C15.1208 38.1562 15.9026 38.9518 16.9219 38.9518C17.4365 38.9518 17.8125 38.7652 18.0797 38.4214V38.8732H18.8615V35.2589ZM22.8693 37.7732C22.8693 36.3 20.6031 36.9679 20.6031 36.2804C20.6031 35.7205 21.7807 35.8089 22.4339 36.1723L22.7604 35.5339C21.8302 34.9348 19.7719 34.9446 19.7719 36.3393C19.7719 37.7437 22.038 37.1545 22.038 37.8125C22.038 38.4312 20.7021 38.3821 19.9896 37.8911L19.6432 38.5098C20.7516 39.2562 22.8693 39.0991 22.8693 37.7732ZM26.3724 38.6866L26.1547 38.0187C25.7786 38.225 24.9474 38.4509 24.9474 37.6161V35.9857H26.2438V35.2589H24.9474V34.1589H24.1359V35.2589H23.3839V35.9759H24.1359V37.6161C24.1359 39.3446 25.8479 39.0304 26.3724 38.6866ZM27.6885 37.3705H30.4099C30.4099 35.7795 29.6776 35.1509 28.688 35.1509C27.6391 35.1509 26.887 35.9268 26.887 37.0464C26.887 39.0598 29.1234 39.3937 30.2318 38.4411L29.8557 37.8518C29.0839 38.4804 27.9161 38.4214 27.6885 37.3705ZM33.537 35.2589C33.0818 35.0625 32.3891 35.0821 32.0328 35.6911V35.2589H31.2214V38.8634H32.0328V36.8304C32.0328 35.6911 32.9729 35.8384 33.2995 36.0054L33.537 35.2589ZM34.5859 37.0562C34.5859 35.9366 35.7339 35.5732 36.6344 36.2312L37.0104 35.5929C35.8625 34.6991 33.7745 35.1902 33.7745 37.0661C33.7745 39.0107 35.9911 39.4036 37.0104 38.5393L36.6344 37.9009C35.724 38.5393 34.5859 38.1562 34.5859 37.0562ZM41.1865 35.2589H40.375V35.6911C39.5536 34.6107 37.4161 35.2196 37.4161 37.0562C37.4161 38.942 39.6328 39.4821 40.375 38.4214V38.8732H41.1865V35.2589ZM44.5214 35.2589C44.2839 35.1411 43.4328 34.9741 43.0172 35.6911V35.2589H42.2354V38.8634H43.0172V36.8304C43.0172 35.75 43.9078 35.8187 44.2839 36.0054L44.5214 35.2589ZM48.5094 33.7955H47.7276V35.6911C46.9161 34.6205 44.7687 35.1902 44.7687 37.0562C44.7687 38.9616 46.9953 39.4723 47.7276 38.4214V38.8732H48.5094V33.7955ZM49.2615 26.4196V26.8714H49.3406V26.4196H49.5286V26.3411H49.0734V26.4196H49.2615ZM49.9146 38.5786C49.9146 38.5295 49.9146 38.4705 49.8849 38.4214C49.8552 38.392 49.8354 38.3429 49.8057 38.3134C49.776 38.2839 49.7266 38.2643 49.6969 38.2348C49.6474 38.2348 49.588 38.2054 49.5385 38.2054C49.5089 38.2054 49.4594 38.2348 49.4 38.2348C49.3505 38.2643 49.3208 38.2839 49.2911 38.3134C49.2417 38.3429 49.212 38.392 49.212 38.4214C49.1823 38.4705 49.1823 38.5295 49.1823 38.5786C49.1823 38.608 49.1823 38.6571 49.212 38.7161C49.212 38.7455 49.2417 38.7946 49.2911 38.8241C49.3208 38.8536 49.3406 38.8732 49.4 38.9027C49.4495 38.9321 49.5089 38.9321 49.5385 38.9321C49.588 38.9321 49.6474 38.9321 49.6969 38.9027C49.7266 38.8732 49.776 38.8536 49.8057 38.8241C49.8354 38.7946 49.8552 38.7455 49.8849 38.7161C49.9146 38.6571 49.9146 38.608 49.9146 38.5786ZM50.2313 26.3312H50.0927L49.9344 26.675L49.776 26.3312H49.6375V26.8616H49.7167V26.4589L49.875 26.8027H49.9839L50.1224 26.4589V26.8616H50.2313V26.3312ZM50.6667 18.425C50.6667 10.9411 44.5214 4.84196 36.9609 4.84196C34.2693 4.84196 31.6271 5.64732 29.3906 7.11071C36.5255 12.9348 36.6344 23.9545 29.3906 29.7491C31.6271 31.2223 34.2891 32.0179 36.9609 32.0179C44.5214 32.0277 50.6667 25.9384 50.6667 18.425Z" fill="#8C97AF"/>
</svg>
