<svg width="57" height="44" viewBox="0 0 57 44" fill="none" xmlns="http://www.w3.org/2000/svg">
<path d="M46.5203 19.5741C46.5203 19.5741 47.2724 23.2277 47.4406 23.9937H44.1354C44.462 23.1196 45.7188 19.7214 45.7188 19.7214C45.699 19.7509 46.0453 18.8277 46.2432 18.258L46.5203 19.5741ZM57 4.71429V39.2857C57 41.8884 54.8724 44 52.25 44H4.75C2.1276 44 0 41.8884 0 39.2857V4.71429C0 2.11161 2.1276 0 4.75 0H52.25C54.8724 0 57 2.11161 57 4.71429ZM15.0911 29.3857L21.3453 14.1429H17.1396L13.2505 24.5536L12.825 22.442L11.4396 15.4295C11.212 14.4571 10.5094 14.1821 9.63854 14.1429H3.23594L3.16667 14.4473C4.73021 14.8402 6.12552 15.4098 7.34271 16.1268L10.8854 29.3857H15.0911ZM24.4328 29.4054L26.9266 14.1429H22.9484L20.4646 29.4054H24.4328ZM38.2771 24.4161C38.2969 22.6777 37.2281 21.3518 34.9422 20.2616C33.5469 19.5643 32.6958 19.0929 32.6958 18.3759C32.7156 17.7277 33.4182 17.0598 34.9818 17.0598C36.2781 17.0304 37.2281 17.3348 37.9406 17.6393L38.2969 17.8062L38.8411 14.5062C38.0594 14.2018 36.8125 13.858 35.2786 13.858C31.35 13.858 28.5891 15.9402 28.5693 18.9062C28.5396 21.0964 30.5484 22.3143 32.0526 23.0509C33.5865 23.7973 34.1109 24.2884 34.1109 24.9464C34.0911 25.9679 32.8641 26.4393 31.726 26.4393C30.1427 26.4393 29.2917 26.1937 27.9953 25.6241L27.4708 25.3786L26.9167 28.8062C27.8469 29.2286 29.5688 29.6018 31.35 29.6214C35.526 29.6313 38.2474 27.5786 38.2771 24.4161ZM52.25 29.4054L49.0438 14.1429H45.9661C45.0161 14.1429 44.2938 14.4179 43.888 15.4098L37.9802 29.4054H42.1562C42.1562 29.4054 42.8391 27.5196 42.9875 27.117H48.0938C48.2125 27.6571 48.5687 29.4054 48.5687 29.4054H52.25Z" fill="#8C97AF"/>
</svg>
